<?xml version="1.0" encoding="utf-8"?>
<!-- Generator: Adobe Illustrator 17.0.0, SVG Export Plug-In . SVG Version: 6.00 Build 0)  -->
<!DOCTYPE svg PUBLIC "-//W3C//DTD SVG 1.1//EN" "http://www.w3.org/Graphics/SVG/1.1/DTD/svg11.dtd">
<svg version="1.1" id="图层_1" xmlns="http://www.w3.org/2000/svg" xmlns:xlink="http://www.w3.org/1999/xlink" x="0px" y="0px"
	 width="240px" height="48.737px" viewBox="0 0 240 48.737" enable-background="new 0 0 240 48.737" xml:space="preserve">
<g>
	<path fill="#D61A07" d="M24.213,47.897c12.992,0,23.528-10.536,23.528-23.528S37.205,0.84,24.213,0.84S0.685,11.376,0.685,24.368
		S11.221,47.897,24.213,47.897L24.213,47.897z M24.213,46.011c-11.951,0-21.643-9.692-21.643-21.643S12.262,2.726,24.213,2.726
		s21.643,9.692,21.643,21.643S36.164,46.011,24.213,46.011z"/>
	<path fill="#D61A07" d="M38.52,35.187c0,0.529-0.183,0.982-0.555,1.354s-0.825,0.555-1.354,0.555h-3.818
		c-0.529,0-0.983-0.183-1.354-0.555c-0.372-0.372-0.555-0.825-0.555-1.354v-2.546c0-0.529-0.183-0.983-0.555-1.354
		c-0.372-0.372-0.825-0.555-1.354-0.555h-7.636c-0.529,0-0.983,0.183-1.354,0.555c-0.372,0.372-0.555,0.825-0.555,1.354v2.546
		c0,0.529-0.183,0.982-0.555,1.354s-0.825,0.555-1.354,0.555h-3.818c-0.529,0-0.983-0.183-1.354-0.555
		c-0.372-0.372-0.555-0.825-0.555-1.354V13.551c0-0.529,0.183-0.983,0.555-1.354c0.372-0.372,0.825-0.555,1.354-0.555h16.546
		c0.529,0,0.983,0.183,1.354,0.555c0.372,0.372,0.555,0.825,0.555,1.354v2.545c0,0.529,0.183,0.983,0.555,1.354
		c0.372,0.372,0.825,0.555,1.354,0.555h2.545c0.53,0,0.983,0.183,1.354,0.555s0.555,0.825,0.555,1.354v2.545
		c0,0.529-0.183,0.983-0.555,1.354c-0.372,0.372-0.825,0.555-1.354,0.555h-2.545c-0.529,0-0.982,0.183-1.354,0.555
		s-0.555,0.825-0.555,1.354v1.273c0,0.529,0.183,0.983,0.555,1.354c0.372,0.372,0.825,0.555,1.354,0.555h2.545
		c0.53,0,0.983,0.183,1.354,0.555c0.372,0.372,0.555,0.825,0.555,1.354L38.52,35.187L38.52,35.187z M32.157,22.46v-2.545
		c0-0.529-0.183-0.983-0.555-1.354c-0.372-0.372-0.825-0.555-1.354-0.555h-8.909c-0.529,0-0.983,0.183-1.354,0.555
		c-0.372,0.372-0.555,0.825-0.555,1.354v2.545c0,0.529,0.183,0.983,0.555,1.354c0.372,0.372,0.825,0.555,1.354,0.555h8.909
		c0.529,0,0.983-0.183,1.354-0.555C31.973,23.442,32.157,22.989,32.157,22.46z"/>
	<path fill="#D61A07" d="M54.783,33.194h5.437V27.04h2.892c0.531,0.004,0.956,0.103,1.269,0.301
		c0.313,0.194,0.548,0.457,0.704,0.787c0.156,0.329,0.268,0.696,0.334,1.1c0.062,0.408,0.107,0.824,0.14,1.248
		c0.033,0.457,0.083,0.914,0.148,1.368c0.066,0.457,0.165,0.906,0.297,1.351h5.437c-0.123-0.21-0.218-0.482-0.292-0.816
		c-0.07-0.329-0.124-0.684-0.161-1.059c-0.037-0.371-0.066-0.729-0.087-1.067c-0.016-0.338-0.037-0.618-0.053-0.84
		c-0.066-0.737-0.21-1.401-0.433-1.994c-0.218-0.589-0.511-1.092-0.873-1.504c-0.362-0.408-0.795-0.708-1.289-0.902
		c0.453-0.169,0.844-0.408,1.174-0.717c0.334-0.305,0.61-0.659,0.824-1.059c0.218-0.404,0.379-0.828,0.486-1.281
		c0.107-0.449,0.161-0.906,0.161-1.368c-0.004-0.835-0.161-1.565-0.465-2.195c-0.305-0.63-0.721-1.153-1.256-1.578
		c-0.531-0.42-1.141-0.737-1.833-0.952c-0.692-0.21-1.425-0.317-2.204-0.317H54.783V33.194L54.783,33.194z M60.221,19.747h2.546
		c0.688,0,1.227,0.07,1.623,0.206c0.391,0.14,0.672,0.338,0.836,0.597c0.161,0.264,0.239,0.581,0.235,0.952
		c-0.004,0.391-0.082,0.704-0.231,0.943c-0.152,0.235-0.346,0.412-0.589,0.527c-0.239,0.115-0.498,0.194-0.774,0.231
		c-0.276,0.041-0.544,0.058-0.803,0.054h-2.842L60.221,19.747L60.221,19.747z M73.939,33.194h14.879V28.67h-9.441v-2.2h8.329v-4.202
		h-8.329v-2.2h9.169v-4.522H73.939V33.194L73.939,33.194z M92.181,33.194h7.86c1.537-0.004,2.871-0.21,4.008-0.622
		c1.133-0.412,2.068-1.001,2.809-1.771c0.741-0.774,1.298-1.701,1.66-2.789c0.362-1.088,0.544-2.311,0.544-3.666
		c0.004-0.894-0.087-1.771-0.264-2.624s-0.457-1.652-0.844-2.397c-0.383-0.742-0.886-1.396-1.508-1.961
		c-0.622-0.568-1.372-1.009-2.257-1.331c-0.882-0.317-1.911-0.482-3.085-0.486h-8.922L92.181,33.194L92.181,33.194z M97.618,20.069
		h1.73c0.783,0.004,1.434,0.115,1.953,0.33c0.523,0.214,0.939,0.49,1.252,0.828c0.309,0.338,0.544,0.7,0.7,1.083
		c0.152,0.383,0.255,0.75,0.305,1.096c0.049,0.346,0.07,0.634,0.066,0.865c0.004,0.338-0.021,0.7-0.078,1.092
		c-0.054,0.396-0.161,0.783-0.313,1.174c-0.152,0.387-0.371,0.741-0.659,1.063c-0.288,0.321-0.663,0.577-1.125,0.774
		c-0.461,0.194-1.03,0.292-1.705,0.297h-2.125L97.618,20.069L97.618,20.069z M126.586,33.194h1.483V23.9h-7.736v1.977h5.635
		c0.037,0.808-0.07,1.561-0.309,2.253c-0.243,0.696-0.61,1.306-1.104,1.833c-0.49,0.523-1.096,0.931-1.808,1.223
		c-0.717,0.297-1.528,0.445-2.439,0.449c-0.787-0.004-1.499-0.132-2.138-0.379c-0.638-0.247-1.203-0.593-1.693-1.038
		c-0.486-0.445-0.894-0.964-1.223-1.557c-0.334-0.593-0.581-1.232-0.75-1.924c-0.165-0.692-0.251-1.405-0.251-2.146
		c0-0.762,0.07-1.504,0.218-2.233c0.148-0.725,0.375-1.405,0.68-2.039c0.309-0.63,0.7-1.19,1.178-1.672
		c0.478-0.482,1.046-0.857,1.71-1.129c0.659-0.272,1.417-0.412,2.27-0.416c0.659,0,1.277,0.074,1.858,0.231
		c0.581,0.152,1.104,0.391,1.569,0.709c0.465,0.317,0.853,0.721,1.166,1.207c0.309,0.49,0.527,1.067,0.647,1.734h2.348
		c-0.169-1.03-0.478-1.916-0.923-2.657c-0.449-0.741-1.005-1.347-1.677-1.821c-0.667-0.474-1.425-0.82-2.27-1.046
		c-0.844-0.222-1.751-0.334-2.719-0.334c-1.116,0.004-2.121,0.173-3.019,0.502c-0.894,0.334-1.681,0.795-2.352,1.392
		c-0.672,0.597-1.232,1.298-1.681,2.097c-0.449,0.803-0.787,1.677-1.013,2.628c-0.227,0.947-0.338,1.936-0.338,2.97
		c0,0.923,0.124,1.821,0.371,2.69c0.243,0.869,0.601,1.681,1.071,2.426c0.47,0.75,1.046,1.409,1.73,1.973
		c0.68,0.564,1.458,1.005,2.336,1.322c0.877,0.317,1.841,0.482,2.896,0.486c0.7,0,1.396-0.087,2.088-0.268
		c0.692-0.181,1.347-0.461,1.961-0.849c0.614-0.387,1.153-0.886,1.611-1.503L126.586,33.194L126.586,33.194z M134.577,23.677v-6.154
		h5.833c0.733,0.004,1.331,0.136,1.792,0.395c0.461,0.26,0.803,0.618,1.022,1.067c0.218,0.453,0.33,0.972,0.325,1.553
		c-0.004,0.638-0.111,1.162-0.325,1.573c-0.218,0.412-0.511,0.733-0.89,0.96c-0.375,0.227-0.807,0.387-1.298,0.478
		c-0.49,0.087-1.009,0.132-1.565,0.128L134.577,23.677L134.577,23.677z M132.229,33.194h2.348v-7.538h5.734
		c0.564,0.004,1.026,0.086,1.384,0.255c0.358,0.165,0.643,0.396,0.848,0.688c0.206,0.296,0.358,0.634,0.465,1.017
		c0.103,0.383,0.185,0.791,0.243,1.228c0.082,0.437,0.132,0.873,0.152,1.31c0.021,0.437,0.037,0.849,0.049,1.244
		c0.012,0.395,0.049,0.746,0.107,1.059c0.062,0.309,0.173,0.556,0.334,0.737h2.62c-0.243-0.305-0.428-0.647-0.56-1.03
		c-0.128-0.379-0.218-0.783-0.272-1.211c-0.058-0.428-0.095-0.861-0.119-1.31c-0.025-0.445-0.054-0.886-0.087-1.318
		c-0.041-0.437-0.107-0.849-0.198-1.244c-0.091-0.391-0.231-0.75-0.42-1.075c-0.19-0.321-0.445-0.597-0.77-0.824
		c-0.329-0.227-0.746-0.391-1.256-0.49v-0.049c0.708-0.202,1.285-0.519,1.738-0.952s0.787-0.947,1.005-1.549
		c0.214-0.601,0.321-1.26,0.321-1.973c-0.004-0.943-0.223-1.763-0.655-2.451c-0.433-0.688-1.046-1.223-1.845-1.598
		c-0.799-0.379-1.755-0.568-2.863-0.573h-8.305v17.647H132.229z M147.759,33.194h2.422l1.977-5.314h7.464l1.928,5.314h2.595
		l-6.895-17.647h-2.595L147.759,33.194L147.759,33.194z M155.891,17.671h0.05l2.941,8.23H152.9L155.891,17.671L155.891,17.671z
		 M166.576,33.194h2.348v-7.217h5.388c1.174,0.004,2.159-0.202,2.962-0.618c0.807-0.412,1.413-1.009,1.829-1.792
		c0.412-0.778,0.622-1.714,0.622-2.805c0-1.091-0.21-2.027-0.622-2.801c-0.416-0.779-1.022-1.372-1.829-1.788
		c-0.803-0.412-1.788-0.622-2.962-0.626h-7.736L166.576,33.194L166.576,33.194z M168.924,17.523h4.597
		c1.318,0.004,2.29,0.28,2.921,0.832c0.63,0.548,0.939,1.351,0.935,2.406c0.004,1.055-0.305,1.862-0.935,2.414
		c-0.63,0.556-1.602,0.832-2.921,0.824h-4.597V17.523L168.924,17.523z M183.292,33.194h12.259v-1.977h-9.911v-6.105h9.17v-1.977
		h-9.17v-5.61h9.837v-1.978h-12.185L183.292,33.194L183.292,33.194z"/>
	<path fill="#D61A07" d="M226.67,20.556h-1.688v3.479l0.729-0.625l1.333,1.542v-0.938h12.271v2.25h-4.771v5.208h4.771v2.25h-8.708
		l-1.333-1.333l-1.23,1.333l-1.625-1.562l1.501-1.563v-3.729h2.25v3.229l1.374,1.375h0.75v-5.208h-5.25v-1.062l-2.062,1.791v6.729
		h-3.438v-2.229h1.188v-4.271h-1.875v-2.25h1.875v-4.416h-2.146v-2.25h2.146v-3.292h2.25v3.292h1.688V20.556z M234.958,28.772
		L237,26.876l1.916,2.064l-2.042,1.896L234.958,28.772z M230.065,21.056h2.979l-1.833-1.958l1.875-1.771h-3.021L230.065,21.056
		L230.065,21.056z M235.149,19.243l-1.938,1.813h3.083v-3.729h-2.958L235.149,19.243L235.149,19.243z M238.544,23.306h-10.729
		v-8.229h10.729V23.306z"/>
	<path fill="#D61A07" d="M200.739,31.358h7.083v2.25h-7.083V31.358z M207.781,29.441h-6.896v-2.187l2.833-4.104h-2.812v-2.229
		l3.625-5.792l1.896,1.187l-2.854,4.584h1.708l0.937-1.354l1.834,1.27l-4.417,6.375h4.146V29.441z M218.989,18.025h-3.937v13.271
		h4.396v2.25h-11v-2.25h4.354V18.025h-3.917v-2.25h10.104V18.025z"/>
</g>
</svg>
